<svg width="25" height="25" viewBox="0 0 25 25" fill="none" xmlns="http://www.w3.org/2000/svg">
<path d="M8.53658 5.32662C9.79682 4.568 11.2382 4.16712 12.7073 4.16666C13.9295 4.16593 15.1361 4.44246 16.2372 4.97562C17.3383 5.50878 18.3055 6.28482 19.0666 7.2459C19.8277 8.20698 20.3631 9.3283 20.6329 10.5263C20.9028 11.7243 20.9001 12.968 20.6251 14.1648C20.35 15.3616 19.8097 16.4806 19.0444 17.4383C18.2792 18.396 17.3087 19.1678 16.2053 19.6962C15.1019 20.2245 13.8941 20.4957 12.6718 20.4896C11.6517 20.4846 10.6436 20.2864 9.69954 19.9075L4.78147 20.7304C4.50264 20.7771 4.27442 20.5102 4.36383 20.242L5.65455 16.3705C5.02202 15.2555 4.65871 14.0039 4.59768 12.7166C4.52776 11.242 4.85716 9.77591 5.5508 8.47454C6.24444 7.17316 7.27633 6.08523 8.53658 5.32662Z" stroke="black" stroke-width="1.8" stroke-linecap="round" stroke-linejoin="round"/>
<path d="M9.375 9.375V10.4167" stroke="black" stroke-width="1.5" stroke-linecap="round" stroke-linejoin="round"/>
<path d="M15.625 9.375V10.4167" stroke="black" stroke-width="1.5" stroke-linecap="round" stroke-linejoin="round"/>
<path d="M13.25 10.9375C13.25 10.5233 12.9142 10.1875 12.5 10.1875C12.0858 10.1875 11.75 10.5233 11.75 10.9375H13.25ZM10.9375 12.5312C10.5233 12.5312 10.1875 12.867 10.1875 13.2812C10.1875 13.6955 10.5233 14.0312 10.9375 14.0312V12.5312ZM11.75 10.9375V12.2812H13.25V10.9375H11.75ZM11.5 12.5312H10.9375V14.0312H11.5V12.5312ZM11.75 12.2812C11.75 12.4193 11.6381 12.5312 11.5 12.5312V14.0312C12.4665 14.0312 13.25 13.2477 13.25 12.2812H11.75Z" fill="black"/>
<path d="M10.7146 15.9518C11.1964 16.4095 11.8355 16.6647 12.5 16.6647C13.1645 16.6647 13.8036 16.4095 14.2854 15.9518" stroke="black" stroke-width="1.5" stroke-linecap="round" stroke-linejoin="round"/>
</svg>
