<svg width="104" height="103" viewBox="0 0 104 103" fill="none" xmlns="http://www.w3.org/2000/svg">
<path fill-rule="evenodd" clip-rule="evenodd" d="M12.5326 35.8496C11.3303 47.0203 11.3839 59.9039 13.0569 71.0293C13.9826 77.1852 19.0067 81.9045 25.2085 82.4436L31.6899 83.007C45.2045 84.1818 58.7957 84.1818 72.3103 83.007L78.7917 82.4436C84.9935 81.9045 90.0176 77.1852 90.9433 71.0293C92.6163 59.9038 92.67 47.0211 91.4677 35.8503C91.3123 34.5552 91.1375 33.2619 90.9433 31.9707C90.0176 25.8148 84.9935 21.0955 78.7917 20.5564L72.3103 19.993C58.7956 18.8182 45.2045 18.8182 31.6899 19.993L25.2085 20.5564C19.0067 21.0955 13.9826 25.8148 13.0569 31.9707C12.8628 33.2617 12.688 34.5548 12.5326 35.8496ZM32.2474 26.4063C45.3911 25.2637 58.6091 25.2637 71.7528 26.4063L78.2342 26.9697C81.4716 27.2511 84.0941 29.7146 84.5774 32.928C84.6276 33.2617 84.6764 33.5956 84.7238 33.9296L60.8579 47.1885C55.3491 50.2489 48.6508 50.2489 43.142 47.1885L19.2763 33.9298C19.3238 33.5957 19.3726 33.2618 19.4228 32.928C19.906 29.7146 22.5286 27.2511 25.766 26.9697L32.2474 26.4063ZM85.5116 40.8562C86.344 50.5886 86.0326 60.3945 84.5774 70.072C84.0941 73.2854 81.4716 75.7489 78.2342 76.0303L71.7528 76.5937C58.6091 77.7363 45.3911 77.7363 32.2474 76.5937L25.766 76.0303C22.5286 75.7489 19.906 73.2854 19.4228 70.072C17.9675 60.3945 17.6561 50.5887 18.4886 40.8564L40.0157 52.8159C47.4687 56.9564 56.5312 56.9564 63.9842 52.8159L85.5116 40.8562Z" fill="#D9D9D9"/>
</svg>
